<svg width="24" height="24" viewBox="0 0 24 24" fill="none" xmlns="http://www.w3.org/2000/svg">
<g filter="url(#filter0_d_1_56)">
<path d="M5.14016 14.2847V13.1419L5.70527 12.5591L4.75448 12.0403C4.75448 11.5786 4.81561 11.5049 5.14016 11.2095C5.45557 10.9666 5.71498 10.6484 5.93668 10.285H4.85904C4.0311 10.285 3.68427 9.22791 4.3505 8.73766L7.476 6.43668C7.63656 6.01957 7.74798 5.5756 7.76169 5.13392L8.57877 4.01114L7.50456 2.85865C7.56742 2.67352 7.67598 2.50439 7.82626 2.36897L9.64784 0.731948C10.1721 0.260832 10.852 0.000142566 11.5568 0H15.4251C16.0313 0 16.6126 0.240798 17.0413 0.669422C17.4699 1.09805 17.7107 1.67939 17.7107 2.28555V2.59981L18.8603 3.99229L10.0072 16L6.85433 15.9989C6.3997 15.9989 5.9637 15.8183 5.64223 15.4968C5.32076 15.1753 5.14016 14.7393 5.14016 14.2847Z" fill="#D3D3D3"/>
<path d="M17.7108 13.7133V11.7169C17.7117 11.7921 17.7422 11.8639 17.7956 11.9167C17.8491 11.9696 17.9213 11.9992 17.9964 11.9992H18.5678C18.7951 11.9992 19.0131 11.9089 19.1739 11.7481C19.3346 11.5874 19.4249 11.3694 19.4249 11.1421V3.14267C19.4249 2.91535 19.3346 2.69735 19.1739 2.53662C19.0131 2.37588 18.7951 2.28558 18.5678 2.28558H17.9964C17.9212 2.28558 17.8489 2.31529 17.7954 2.36825C17.7419 2.42121 17.7115 2.49315 17.7108 2.56842V4.62827C16.8994 5.19909 16.448 5.54821 15.7109 6.28587C15.5951 6.40042 15.4784 6.51394 15.3606 6.62642C13.9853 7.95089 11.0398 10.7855 9.99702 15.9989H15.4252C16.0314 15.9989 16.6127 15.7581 17.0413 15.3295C17.47 14.9008 17.7108 14.3195 17.7108 13.7133ZM9.52848 9.53135C9.44887 9.75119 9.30374 9.94133 9.11267 10.0761C8.9216 10.2109 8.6938 10.2838 8.45998 10.285H4.85338C4.76768 10.285 4.68654 10.2724 4.61169 10.2507C4.23286 10.1422 4.4637 9.71362 4.85796 9.71362H8.49312C8.60796 9.71346 8.72008 9.67871 8.81487 9.61388C8.90966 9.54906 8.98272 9.45718 9.02452 9.35022L10.4416 5.72934C10.585 5.36365 11.0398 5.36193 10.9055 5.73219L9.52848 9.53135Z" fill="#9B9B9B"/>
<path d="M17.7107 11.7163V2.56842C17.7114 2.49315 17.7419 2.42121 17.7954 2.36825C17.8488 2.31529 17.9211 2.28558 17.9964 2.28558H18.2821V11.9992H17.9964C17.9211 11.9992 17.8488 11.9695 17.7954 11.9165C17.7419 11.8635 17.7114 11.7916 17.7107 11.7163ZM9.23471 5.14252H7.76053C7.76947 4.9112 7.74795 4.67971 7.69653 4.454C7.62767 4.15527 7.55529 3.85737 7.4794 3.56035C7.41944 3.32834 7.42857 3.08386 7.50569 2.85697H13.711C14.014 2.85697 14.3047 2.97737 14.519 3.19168C14.7333 3.40599 14.8537 3.69666 14.8537 3.99975C14.8537 4.30283 14.7333 4.5935 14.519 4.80781C14.3047 5.02212 14.014 5.14252 13.711 5.14252H10.8917C10.702 4.7117 10.1341 4.48028 9.67925 4.81512L9.23471 5.14252ZM10.854 13.142H5.14014L4.75446 12.0403V11.9992H10.854C11.0056 11.9992 11.1509 12.0594 11.2581 12.1665C11.3652 12.2737 11.4254 12.419 11.4254 12.5706C11.4254 12.7221 11.3652 12.8674 11.2581 12.9746C11.1509 13.0818 11.0056 13.142 10.854 13.142Z" fill="#636363"/>
</g>
<defs>
<filter id="filter0_d_1_56" x="0" y="0" width="23.4249" height="24" filterUnits="userSpaceOnUse" color-interpolation-filters="sRGB">
<feFlood flood-opacity="0" result="BackgroundImageFix"/>
<feColorMatrix in="SourceAlpha" type="matrix" values="0 0 0 0 0 0 0 0 0 0 0 0 0 0 0 0 0 0 127 0" result="hardAlpha"/>
<feOffset dy="4"/>
<feGaussianBlur stdDeviation="2"/>
<feComposite in2="hardAlpha" operator="out"/>
<feColorMatrix type="matrix" values="0 0 0 0 0 0 0 0 0 0 0 0 0 0 0 0 0 0 0.25 0"/>
<feBlend mode="normal" in2="BackgroundImageFix" result="effect1_dropShadow_1_56"/>
<feBlend mode="normal" in="SourceGraphic" in2="effect1_dropShadow_1_56" result="shape"/>
</filter>
</defs>
</svg>
